<svg width="136" height="140" viewBox="0 0 136 140" fill="none"
  xmlns="http://www.w3.org/2000/svg">
  <mask id="mask0_5_447" style="mask-type:alpha" maskUnits="userSpaceOnUse"
    x="0" y="0" width="136" height="140">
    <rect width="136" height="140" fill="#ffffff" />
  </mask>
  <g mask="url(#mask0_5_447)">
    <rect x="-14" y="-5" width="175" height="170" fill="#C94585" />
    <path
      d="M118.98 60.463C118.98 60.3551 118.656 59.8156 117.793 59.7077H96.8604C95.8892 59.8156 95.6734 60.3551 95.6734 60.463V60.5709L92.0048 68.7714H122.541L118.98 60.463Z"
      fill="#963363" />
    <path
      d="M148.006 46.1121L147.034 41.1487L141.639 41.3645C138.187 41.3645 120.491 40.7171 112.506 27.7689L107.543 20L102.471 27.8768C94.4865 40.825 76.7907 41.4724 73.3379 41.4724L67.9428 41.2566L66.9717 46.22C66.7559 47.6227 64.4899 60.5709 67.727 75.8929C70.6403 90.7833 79.704 110.961 104.953 122.075L107.435 123.154L109.809 122.075C135.165 110.961 144.229 90.7833 147.358 75.8929C150.487 60.2472 148.221 47.5148 148.006 46.1121ZM128.799 72.44L127.72 72.5479C129.339 75.785 130.741 81.18 126.102 85.8198C125.67 86.3593 125.023 86.7909 124.375 86.8988V89.5964C124.375 90.6754 123.512 91.4307 122.541 91.4307H120.059C118.98 91.4307 118.225 90.5675 118.225 89.5964V87.1146H96.5366V89.7043C96.5366 90.7833 95.6734 91.5386 94.7023 91.5386H92.2206C91.1416 91.5386 90.3863 90.6754 90.3863 89.7043V87.0067C89.8468 86.8988 88.6598 85.9277 88.5519 85.9277C84.0201 81.288 85.7465 75.785 87.365 72.6558L86.0702 72.5479C83.5885 71.9005 83.9122 70.0662 84.128 68.9872C84.3438 67.9082 85.207 67.6924 85.207 67.6924L89.0915 68.124L92.6522 59.5998C92.9759 58.6287 94.1628 57.0102 96.5366 56.7944H96.6445H117.901C120.275 57.0102 121.462 58.6287 121.786 59.5998L125.454 68.124L129.447 67.6924C129.447 67.6924 130.31 67.9082 130.526 68.9872C130.957 69.9583 131.281 71.7926 128.799 72.44Z"
      fill="#963363" />
    <path
      d="M94.0549 74.0586C92.5443 74.0586 91.3574 75.2455 91.3574 76.7561C91.3574 78.2667 92.5443 79.4537 94.0549 79.4537C95.5655 79.4537 96.7524 78.2667 96.7524 76.7561C96.7524 75.3534 95.5655 74.0586 94.0549 74.0586Z"
      fill="#963363" />
    <path
      d="M120.275 74.0586C118.764 74.0586 117.577 75.2455 117.577 76.7561C117.577 78.2667 118.764 79.4537 120.275 79.4537C121.786 79.4537 122.972 78.2667 122.972 76.7561C122.972 75.3534 121.786 74.0586 120.275 74.0586Z"
      fill="#963363" />
  </g>
</svg>