<svg width="136" height="140" viewBox="0 0 136 140" fill="none"
  xmlns="http://www.w3.org/2000/svg">
  <mask id="mask0_5_477" style="mask-type:alpha" maskUnits="userSpaceOnUse"
    x="0" y="0" width="136" height="140">
    <rect width="136" height="140" fill="#ffffff" />
  </mask>
  <g mask="url(#mask0_5_477)">
    <rect x="-14" y="-5" width="175" height="170" fill="#E18430" />
    <path
      d="M99.7962 52C98.8167 52 98.0937 52.723 98.0937 53.6673V58.2776C98.0977 58.3249 98.0977 58.3723 98.0937 58.4195V66.4008C98.0976 66.4476 98.0976 66.4947 98.0937 66.5415V67.6765V79.914C98.0977 79.9612 98.0977 80.0087 98.0937 80.0559V88.036C98.0977 88.0832 98.0977 88.1307 98.0937 88.1779V101.586C98.0976 101.632 98.0976 101.679 98.0937 101.726V108.466V109.708C98.0977 109.755 98.0977 109.802 98.0937 109.849V122.44C98.0937 123.384 98.8031 124.107 99.7962 124.107H130.371C131.363 124.107 132.143 123.372 132.143 122.44V109.885C132.137 109.826 132.137 109.766 132.143 109.708V108.466V88.2131C132.137 88.1542 132.137 88.0949 132.143 88.036V67.6765V66.5778C132.137 66.519 132.137 66.4596 132.143 66.4008V58.3843C132.142 58.3605 132.142 58.3367 132.143 58.3128V53.6673C132.143 52.7355 131.35 52 130.371 52H99.7962ZM115.119 59.2356C119.144 59.2356 122.354 62.4499 122.354 66.436C122.354 70.4221 119.144 73.6352 115.119 73.6352C111.093 73.6352 107.883 70.4221 107.883 66.436C107.883 62.4499 111.093 59.2356 115.119 59.2356ZM96.3912 59.5545C93.497 60.2559 91.3711 62.569 91 65.5495H96.3912V59.5545ZM133.846 59.5545V65.5495H139.237C138.866 62.569 136.74 60.2559 133.846 59.5545ZM115.119 80.8719C119.144 80.8719 122.354 84.0851 122.354 88.0712C122.354 92.0573 119.144 95.2716 115.119 95.2716C111.093 95.2716 107.883 92.0573 107.883 88.0712C107.883 84.0851 111.093 80.8719 115.119 80.8719ZM96.3912 81.1909C93.497 81.8912 91.3711 84.2054 91 87.1848H96.3912V81.1909ZM133.846 81.1909V87.1848H139.237C138.866 84.2054 136.74 81.8912 133.846 81.1909ZM115.119 102.542C119.144 102.542 122.354 105.721 122.354 109.708C122.354 113.694 119.144 116.943 115.119 116.943C111.093 116.943 107.883 113.694 107.883 109.708C107.883 105.721 111.093 102.542 115.119 102.542ZM96.3912 102.861C93.497 103.563 91.3711 105.876 91 108.856H96.3912V108.466V102.861ZM133.846 102.861V108.466V108.856H139.237C138.866 105.876 136.74 103.563 133.846 102.861ZM111.146 125.81V140.529H119.091V125.81H111.146Z"
      fill="#B35C0D" />
  </g>
</svg>