<svg width="136" height="140" viewBox="0 0 136 140" fill="none"
  xmlns="http://www.w3.org/2000/svg">
  <mask id="mask0_5_419" style="mask-type:alpha" maskUnits="userSpaceOnUse"
    x="0" y="0" width="136" height="140">
    <rect width="136" height="140" fill="#ffffff" />
  </mask>
  <g mask="url(#mask0_5_419)">
    <rect x="-14" y="-5" width="175" height="170" fill="#5288C7" />
    <path
      d="M129.944 38.5464C129.944 36.5978 128.398 35.1238 126.586 35.1238H106.437C104.626 35.1238 103.078 36.5978 103.078 38.5464V44.2506H129.944V38.5464ZM110.062 37.5636H122.961V41.8108H110.062V37.5636ZM143.119 68.5071C143.119 74.3878 138.441 79.155 132.671 79.155C126.903 79.155 122.224 74.3878 122.224 68.5071C122.224 62.628 126.903 57.8593 132.671 57.8593C138.441 57.8593 143.119 62.628 143.119 68.5071ZM146.85 91.7043C148.704 91.7043 150.209 93.2376 150.209 95.1253C150.209 97.0176 148.704 98.5494 146.85 98.5494C144.997 98.5494 143.492 97.0176 143.492 95.1253C143.492 93.2376 144.997 91.7043 146.85 91.7043ZM133.391 113.866C133.397 113.703 133.416 113.543 133.416 113.379C133.415 111.05 132.946 108.834 132.103 106.818L138.752 80.7005C140.212 79.943 141.512 78.9223 142.603 77.6993L133.391 113.866ZM131.179 104.978C128.334 100.002 123.058 96.6479 117 96.6464C110.943 96.6479 105.667 99.999 102.821 104.973V91.6921C104.886 89.6858 106.179 86.8595 106.179 83.7214C106.177 80.5818 104.885 77.7571 102.821 75.7477V73.0523L120.013 63.962C119.521 65.3858 119.237 66.91 119.237 68.5071C119.24 75.556 124.461 81.3485 131.179 82.1075V104.978ZM117 127.07C109.582 127.07 103.567 120.939 103.567 113.379C103.567 105.82 109.582 99.6902 117 99.6902C124.418 99.6902 130.432 105.82 130.432 113.379C130.432 120.939 124.418 127.07 117 127.07ZM100.813 110.688L90.3027 93.4658C91.5937 94.1624 93.04 94.5929 94.5758 94.7055L101.924 106.753C101.4 107.994 101.031 109.316 100.813 110.688ZM87.5221 83.7199C87.5221 79.3102 91.0311 75.734 95.3579 75.734C99.6863 75.734 103.194 79.3102 103.194 83.7199C103.194 88.1297 99.6877 91.7043 95.3579 91.7043C91.0311 91.7043 87.5221 88.1297 87.5221 83.7199ZM95.3579 63.1832C96.7997 63.1832 97.9698 64.3742 97.9698 65.8452C97.9698 67.3146 96.7997 68.5071 95.3579 68.5071C93.9176 68.5071 92.746 67.3146 92.746 65.8452C92.746 64.3742 93.9176 63.1832 95.3579 63.1832ZM102.821 64.324C102.821 60.7768 105.685 57.8593 109.164 57.8593H123.444L102.821 68.7657V64.324ZM99.9848 48.7325L75.955 65.8558V99.2491C75.955 99.2491 76.0594 103.636 79.9341 106.313L89.6534 113.499C92.9176 115.837 93.8654 117.577 93.8654 120.682V124.789C93.8654 129.606 96.0475 132.394 101.701 132.394H132.298C137.953 132.394 140.134 129.606 140.134 124.789V120.682C140.134 117.577 141.082 115.837 144.347 113.497C147.905 111.102 151.533 108.707 154.065 106.312C157.943 103.636 158.044 99.2491 158.044 99.2491V65.8558L134.015 48.7325H99.9848ZM98.7176 83.7199C98.7176 81.8292 97.2116 80.2974 95.3594 80.2974C93.5072 80.2974 92.0012 81.8307 92.0012 83.7199C92.0012 85.6091 93.5057 87.1424 95.3594 87.1424C97.2131 87.1424 98.7176 85.6091 98.7176 83.7199ZM121.85 113.377C121.85 110.651 119.68 108.437 117 108.437C114.322 108.437 112.149 110.651 112.149 113.377C112.149 116.108 114.322 118.324 117 118.324C119.68 118.324 121.85 116.108 121.85 113.377ZM128.567 68.5071C128.567 70.8193 130.401 72.6902 132.67 72.6902C134.94 72.6902 136.776 70.8177 136.776 68.5071C136.776 66.1981 134.941 64.324 132.67 64.324C130.401 64.324 128.567 66.1981 128.567 68.5071ZM117 102.048C116.421 102.048 115.953 102.524 115.953 103.111C115.953 103.698 116.421 104.178 117 104.178C121.982 104.184 126.019 108.298 126.026 113.38C126.019 118.462 121.985 122.574 117 122.583C116.421 122.583 115.953 123.059 115.953 123.646C115.953 124.234 116.421 124.713 117 124.713V124.71C123.137 124.71 128.116 119.641 128.116 113.38C128.116 107.121 123.14 102.048 117 102.048ZM163.813 51.8478L144.959 38.3965C144.232 37.8763 143.337 37.7865 142.559 38.071C142.077 38.255 141.652 38.5714 141.335 39.0338L136.471 46.1101L140.892 49.2649L145.467 42.6039L148.32 44.6407L143.744 51.3002L159.598 62.6128L164.461 55.5396C164.964 54.8018 165.05 53.9028 164.771 53.1118C164.589 52.6144 164.271 52.1733 163.813 51.8478ZM165.892 42.5857L152.767 33.2186C151.595 32.382 149.982 32.671 149.164 33.865L146.977 37.0472L150.489 39.5525L152.877 36.0768L155.094 37.6572L152.704 41.1345L164.349 49.4414L166.535 46.2622C167.353 45.0681 167.062 43.4223 165.892 42.5857ZM162.51 33.3114C160.143 31.6214 157.335 31.5575 156.232 33.1623L164.789 39.2711C165.894 37.6648 164.871 34.9968 162.51 33.3114ZM74.2624 52.7985L77.1177 50.7617L81.6923 57.4227L97.5445 46.1086L92.6848 39.0338C92.1773 38.3006 91.3773 37.9097 90.5519 37.9067C90.0311 37.9097 89.5161 38.0634 89.0594 38.3904L70.2087 51.8447C69.4804 52.3634 69.0908 53.1909 69.0878 54.0336C69.0908 54.5584 69.2386 55.0741 69.5565 55.535L74.4177 62.6128L78.8371 59.458L74.2624 52.7985ZM77.7699 33.1638C76.6654 31.5575 73.855 31.6229 71.4938 33.3098C69.1266 34.9968 68.1072 37.6648 69.2102 39.2711L77.7699 33.1638ZM73.1684 46.9467L70.7804 43.4709L72.9953 41.8875L75.3833 45.3647L87.0251 37.0548L84.8415 33.8742C84.0206 32.6816 82.4042 32.3972 81.2326 33.2323L68.1057 42.5978C66.9326 43.4329 66.6475 45.0788 67.4699 46.2698L69.6565 49.452L73.1684 46.9467ZM102.074 136.469C102.074 138.417 103.709 140 105.721 140H128.279C130.292 140 131.925 138.417 131.925 136.469V135.437H102.074V136.469ZM91.4082 70.934C91.4082 74.3965 88.3875 77.2035 84.6612 77.2035C80.9349 77.2035 77.9141 74.3965 77.9141 70.934C77.9141 67.4714 80.9349 64.6644 84.6612 64.6644C88.3875 64.6644 91.4082 67.4714 91.4082 70.934ZM87.8363 71.1362C87.8363 72.6999 86.4592 73.9676 84.7604 73.9676C83.0617 73.9676 81.6845 72.6999 81.6845 71.1362C81.6845 69.5724 83.0617 68.3048 84.7604 68.3048C86.4592 68.3048 87.8363 69.5724 87.8363 71.1362Z"
      fill="#335782" />
  </g>
</svg>