<svg width="136" height="140" viewBox="0 0 136 140" fill="red"
  xmlns="http://www.w3.org/2000/svg">
  <mask id="mask0_4_231" style="mask-type:alpha" maskUnits="userSpaceOnUse"
    x="0" y="0" width="136" height="140">
    <rect width="136" height="140" fill="#ffffff" />
  </mask>
  <g mask="url(#mask0_4_231)">
    <rect x="-14" y="-5" width="175" height="170" fill="#5FAC63" />
    <path
      d="M104.595 140C104.595 140 105.89 134.614 114.952 136.409C124.015 138.205 125.31 140 125.31 140H104.595Z"
      fill="#347737" />
    <path
      d="M105.87 130.737C108.029 134.701 112.61 136.404 112.61 136.404C112.61 136.404 113.692 131.677 111.533 127.712C109.374 123.747 104.793 122.045 104.793 122.045C104.793 122.045 103.712 126.772 105.87 130.737Z"
      fill="#347737" />
    <path
      d="M107.354 129.432C111.251 131.754 112.752 136.367 112.752 136.367C112.752 136.367 107.934 137.214 104.037 134.892C100.14 132.57 98.6393 127.957 98.6393 127.957C98.6393 127.957 103.457 127.11 107.354 129.432Z"
      fill="#4A8E4D" />
    <path
      d="M165 67.0325C165 98.7347 145.972 109.804 122.5 109.804C99.0279 109.804 80 98.7347 80 67.0325C80 35.3303 122.5 -4.99997 122.5 -4.99997C122.5 -4.99997 165 35.3303 165 67.0325Z"
      fill="#73C076" />
    <path
      d="M122.055 37.7173L135.423 18.8112L122.11 34.3435L122.33 -5L120.948 47.0833L121.061 44.9349L107.47 24.3283L120.844 49.0594L119.577 73.0224L119.539 72.3864L103.87 50.7011L119.492 74.6333L119.334 77.6302L119.305 77.6753L119.318 77.9213L116.105 138.717H120.398L120.913 107.315L136.497 83.4415L120.952 104.954L121.387 78.4227L139.502 45.5989L121.455 74.2604L121.651 62.3307L134.136 38.5829L121.703 59.1736L122.055 37.7173Z"
      fill="#347737" />
  </g>
</svg>