<svg width="136" height="140" viewBox="0 0 136 140" fill="none"
  xmlns="http://www.w3.org/2000/svg">
  <mask id="mask0_4_303" style="mask-type:alpha" maskUnits="userSpaceOnUse"
    x="0" y="0" width="136" height="140">
    <rect width="136" height="140" fill="#ffffff" />
  </mask>
  <g mask="url(#mask0_4_303)">
    <rect x="-14" y="-5" width="175" height="170" fill="#D55237" />
    <ellipse cx="125.5" cy="83" rx="32.5" ry="31" fill="white"
      fill-opacity="0.75" />
    <path
      d="M151.041 28H150.765C139.79 28 130.085 33.8289 124.502 42.4301C118.919 33.8289 109.213 28 98.2389 28H97.9631C89.7271 28.0788 81.8548 31.4169 76.057 37.2889C70.2593 43.1608 67.0045 51.0922 67 59.3594C67 69.6255 71.4795 84.1922 80.2142 96.1785C96.8561 119.018 124.502 139 124.502 139C124.502 139 152.148 119.022 168.786 96.1785C177.524 84.1922 182 69.6255 182 59.3594C181.996 51.0928 178.741 43.162 172.944 37.2901C167.147 31.4183 159.276 28.0797 151.041 28ZM147.094 97.9356C145.844 97.9309 144.625 97.5469 143.597 96.834C142.568 96.1212 141.779 95.1129 141.331 93.9414H134.77C134.338 93.9387 133.918 93.8007 133.568 93.5465C133.217 93.2924 132.955 92.9349 132.817 92.5239L130.802 86.4292L124.425 108.796C124.3 109.227 124.04 109.605 123.684 109.875C123.327 110.144 122.893 110.29 122.446 110.291H122.317C121.851 110.269 121.407 110.086 121.059 109.774C120.711 109.463 120.48 109.04 120.405 108.578L113.833 68.9019L109.029 92.3799C108.919 92.8259 108.664 93.2221 108.303 93.5051C107.942 93.7881 107.498 93.9417 107.04 93.9414H97.7976C97.5205 93.9532 97.244 93.9086 96.9845 93.8103C96.7251 93.712 96.4881 93.562 96.288 93.3694C96.0878 93.1768 95.9285 92.9456 95.8196 92.6896C95.7108 92.4335 95.6547 92.1581 95.6547 91.8797C95.6547 91.6014 95.7108 91.3259 95.8196 91.0699C95.9285 90.8139 96.0878 90.5826 96.288 90.39C96.4881 90.1974 96.7251 90.0474 96.9845 89.9491C97.244 89.8508 97.5205 89.8062 97.7976 89.818H105.422L112.225 58.2519C112.337 57.7852 112.607 57.372 112.989 57.0828C113.37 56.7936 113.84 56.6465 114.318 56.6665C114.796 56.6866 115.252 56.8726 115.608 57.1927C115.964 57.5129 116.199 57.9473 116.271 58.4217L122.983 98.8954L128.698 78.8838C128.817 78.4623 129.069 78.0908 129.415 77.8246C129.762 77.5585 130.185 77.4121 130.622 77.4072H130.662C131.094 77.4073 131.515 77.5444 131.866 77.799C132.216 78.0535 132.477 78.4125 132.611 78.8247L136.256 89.8291H141.25C141.605 88.7462 142.252 87.7829 143.118 87.0454C143.984 86.308 145.036 85.825 146.158 85.6499C147.281 85.4748 148.429 85.6143 149.478 86.0531C150.526 86.4919 151.433 87.2128 152.099 88.1364C152.765 89.0599 153.163 90.1502 153.251 91.2868C153.338 92.4234 153.111 93.5622 152.595 94.5775C152.078 95.5928 151.292 96.445 150.323 97.0402C149.355 97.6354 148.241 97.9504 147.105 97.9504L147.094 97.9356Z"
      fill="#ED5B3E" />
  </g>
</svg>